<svg id="Capa_1" data-name="Capa 1" xmlns="http://www.w3.org/2000/svg" viewBox="0 0 688.87 354.14"><defs><style>.cls-1{fill:#a0041e;}.cls-2{fill:#ff6833;}.cls-3{fill:#ffcc4d;}.cls-4{fill:#55acee;}</style></defs><path class="cls-1" d="M370.84,364.44l147.67,8.22L667.9,538.28,522.17,707.13,374.72,718.58s58.38-59.65,57.08-177.72S370.84,364.44,370.84,364.44Z" transform="translate(-195.44 -364.44)"/><path class="cls-2" d="M195.44,543.19s77.27-79.71,136.71-80.36,137.18,79.46,137.18,79.46-76,77.69-135,78.34S195.44,543.19,195.44,543.19Z" transform="translate(-195.44 -364.44)"/><path class="cls-3" d="M392,501.93a55.65,55.65,0,1,1-78.69.87A55.66,55.66,0,0,1,392,501.93Z" transform="translate(-195.44 -364.44)"/><path class="cls-4" d="M884.31,535.9s-99.45-97.3-316.09-114.6c-108.31-8.65-195.88,80.85-195.45,120.2s89.94,126.91,198,115.89C787,635.35,884.31,535.9,884.31,535.9Z" transform="translate(-195.44 -364.44)"/><path d="M746.16,498.05A55.63,55.63,0,0,0,687,486.1,55.46,55.46,0,0,1,688.14,590a55.59,55.59,0,0,0,58-91.95Z" transform="translate(-195.44 -364.44)"/><path class="cls-1" d="M333.43,541.94s38.92-39.78,58.59-40,236.31,17.11,236.53,36.77-216,41.71-235.67,41.92S333.43,541.94,333.43,541.94Z" transform="translate(-195.44 -364.44)"/></svg>