<?xml version="1.0" encoding="utf-8"?>
<!-- Generator: Adobe Illustrator 24.1.3, SVG Export Plug-In . SVG Version: 6.00 Build 0)  -->
<svg version="1.1" id="Capa_1" xmlns="http://www.w3.org/2000/svg" xmlns:xlink="http://www.w3.org/1999/xlink" x="0px" y="0px"
	 viewBox="0 0 1080 525.33" style="enable-background:new 0 0 1080 525.33;" xml:space="preserve">
<style type="text/css">
	.st0{fill:#111;}
	.st1{fill:#111;}
	.st2{fill:#454545;}
	.st3{fill:#FFCE00;}
	.st4{fill:#6D6D6D;}
	.st5{fill:#2D2D2D;}
</style>
<rect x="-3708.78" y="-1363" class="st0" width="1082.67" height="1073.78"/>
<g>
	<path class="st1" d="M-3362.34,928.3c-0.53,1.22-0.88,1.92-1.15,2.65c-3.47,9.54-6.94,19.07-10.39,28.62
		c-5.38,14.86-10.76,29.71-16.12,44.57c-0.61,1.69-1.6,3.5,0.1,5.09c2.58,2.41,1.81,4.82,0.6,7.62
		c-10.27,23.83-20.44,47.7-30.62,71.57c-2.06,4.83-2.03,4.84,2.51,7.65c17.7,10.95,35.37,21.93,53.11,32.81
		c2.68,1.65,4.57,3.53,5.42,6.7c1.16,4.33,2.91,8.49,4.21,12.78c0.57,1.88,1.54,3.13,3.19,4.21c15.2,9.92,30.38,19.86,45.46,29.95
		c2.54,1.7,4.29,2.02,7.01,0.19c15.2-10.22,30.58-20.17,45.82-30.32c1.25-0.84,2.33-2.34,2.88-3.77c1.62-4.18,3.13-8.43,4.3-12.75
		c0.9-3.32,2.85-5.36,5.69-7.1c17.75-10.87,35.42-21.86,53.11-32.81c4.38-2.71,4.41-2.73,2.49-7.25
		c-4.42-10.41-8.89-20.8-13.34-31.2c-5.95-13.92-11.89-27.84-17.86-41.76c-0.73-1.71-1.68-3.42,0-5.03c2.51-2.4,1.76-4.87,0.73-7.7
		c-8.53-23.45-16.94-46.94-25.41-70.41c-0.48-1.34-1.15-2.62-2.07-4.68c-1.12,1.43-1.78,2.38-2.55,3.22
		c-12.26,13.39-24.57,26.73-36.76,40.17c-2.05,2.25-4.12,3.34-7.3,3.26c-8.97-0.25-17.95-0.18-26.92-0.03
		c-2.58,0.04-4.34-0.75-6.04-2.64c-8.37-9.27-16.84-18.45-25.3-27.64C-3352.33,939.07-3357.17,933.88-3362.34,928.3z"/>
</g>
<path class="st2" d="M-3308.9,994.98c-7.67-0.05-15.33-0.09-23-0.15c-3.89-0.03-4.42-0.08-4.26-4.06
	c0.26-6.22-2.56-10.62-6.48-14.96c-5.35-5.92-10.3-12.21-15.63-18.59c-0.52,0.97-1.02,1.63-1.26,2.38
	c-3.48,10.59-6.82,21.23-10.44,31.77c-0.86,2.5-0.31,3.99,1.48,5.64c2.93,2.72,5.64,5.68,8.53,8.44c1.26,1.2,1.17,2.07,0.05,3.32
	c-3.67,4.09-7.35,8.19-10.8,12.47c-1.96,2.43-3.81,5.05-5.14,7.85c-6.27,13.23-12.36,26.55-18.48,39.85
	c-1.51,3.27-1.47,3.3,1.78,5.17c3.61,2.07,7.26,4.08,10.85,6.19c2.59,1.52,2.58,1.59,0.44,3.94c-3.01,3.31-6.05,6.58-9.3,10.11
	c10.99,5.71,21.63,11.19,32.21,16.79c1.95,1.03,2.91,0.8,3.76-1.29c1.81-4.44,3.83-8.79,6.27-14.31c3.5,13.07,6.67,24.96,9.86,36.85
	c0.56,2.09,1.21,3.97,3.2,5.39c9.9,7.06,19.67,14.3,29.5,21.46c0.38,0.28,1.33,0.54,2.17,0.94c0-0.01,0-0.01,0-0.02
	c0.83-0.4,1.6-0.59,1.98-0.87c9.83-7.16,19.6-14.4,29.5-21.46c1.99-1.42,2.64-3.3,3.2-5.39c3.19-11.89,6.36-23.78,9.86-36.85
	c2.44,5.52,4.46,9.87,6.27,14.31c0.85,2.09,1.81,2.32,3.76,1.29c10.58-5.59,21.22-11.07,32.21-16.79c-3.25-3.53-6.29-6.81-9.3-10.11
	c-2.14-2.35-2.15-2.42,0.44-3.94c3.59-2.11,7.24-4.12,10.85-6.19c3.26-1.87,3.29-1.9,1.78-5.17c-6.13-13.3-12.21-26.62-18.48-39.85
	c-1.33-2.8-3.18-5.43-5.14-7.85c-3.45-4.28-7.13-8.37-10.8-12.47c-1.12-1.25-1.21-2.12,0.05-3.32c2.89-2.76,5.6-5.72,8.53-8.44
	c1.78-1.65,2.34-3.14,1.48-5.64c-3.62-10.54-6.97-21.18-10.44-31.77c-0.24-0.75-0.74-1.41-1.27-2.38
	c-5.33,6.38-10.27,12.67-15.63,18.59c-3.92,4.34-6.74,8.74-6.48,14.96c0.16,3.98-0.37,4.03-4.26,4.06c-7.67,0.06-15.33,0.1-23,0.15
	 M-3300.82,1117.87c3.83-0.11,7.67-0.09,11.5,0.02c0.87,0.02,2.45,0.61,2.45,0.97c0.03,1.4,0.31,2.84,0.34,4.25
	c0,0.24-0.02,0.47-0.08,0.69c-0.35,1.38-0.69,2.95-1.58,3.97c-0.76,0.88-1.54,1.74-2.32,2.61c-3.87,4.17-7.69,8.39-11.47,12.64
	c-0.41,0.46-0.77,0.77-1.12,0.95c-0.78,0.34-1.45-0.03-2.32-1.01c-4.54-5.1-9.11-10.18-13.79-15.15c-0.01-0.01-0.01-0.01-0.02-0.02
	c-0.87-1.02-1.21-2.57-1.55-3.94c-0.06-0.23-0.08-0.47-0.08-0.72c0-0.03,0-0.06,0-0.09c0-0.09,0-0.19,0.01-0.28
	c0-0.09,0.01-0.18,0.02-0.27c0-0.06,0.01-0.12,0.01-0.18c0.09-1.17,0.28-2.34,0.3-3.5c0.01-0.36,1.59-0.95,2.45-0.97
	c3.83-0.11,7.67-0.13,11.5-0.02 M-3337.06,1068.91c-3.8-1.2-7.47-2.82-11.29-3.98c-2.73-0.83-4.53-2.29-5.82-4.88
	c-2.67-5.35-5.65-10.55-8.47-15.83c-0.43-0.8-0.7-1.68-1.46-3.53c4.13,2.56,7.25,4.67,10.55,6.46c1.68,0.91,3.64,1.44,5.54,1.81
	c2.28,0.45,4.66,0.95,6.93,0.71c5.08-0.52,8.64,1.59,11.25,5.65c0.95,1.48,1.83,3.12,2.21,4.81c1.06,4.7,1.88,9.46,2.73,14.21
	c0.48,2.72,0.84,5.46,1.25,8.19c-2.82-2.66-5.05-5.53-6.91-8.63C-3332.12,1071.3-3334.23,1069.8-3337.06,1068.91z M-3244.74,1044.27
	c-2.82,5.28-5.8,10.48-8.47,15.83c-1.29,2.59-3.09,4.05-5.82,4.88c-3.81,1.15-7.48,2.78-11.29,3.98c-2.84,0.89-4.95,2.39-6.51,4.99
	c-1.86,3.1-4.09,5.97-6.91,8.63c0.41-2.73,0.77-5.47,1.25-8.19c0.85-4.75,1.66-9.5,2.73-14.21c0.38-1.69,1.26-3.33,2.21-4.81
	c2.6-4.06,6.17-6.17,11.25-5.65c2.27,0.23,4.65-0.27,6.93-0.71c1.9-0.37,3.86-0.89,5.54-1.81c3.29-1.79,6.41-3.9,10.55-6.46
	C-3244.04,1042.59-3244.31,1043.47-3244.74,1044.27z"/>
<g>
	<path class="st3" d="M-2905.68,1023.62c-0.73-1.71-1.68-3.42,0-5.03c2.51-2.4,1.76-4.87,0.73-7.7c-1.18-3.23-2.35-6.47-3.52-9.71
		c-7.33-20.22-14.59-40.47-21.89-60.7c-0.48-1.34-1.15-2.62-2.07-4.68c-1.12,1.43-1.78,2.38-2.55,3.22
		c-12.26,13.39-24.57,26.73-36.76,40.17c-2.05,2.25-4.12,3.34-7.3,3.26c-8.97-0.25-17.95-0.18-26.92-0.03
		c-2.58,0.04-4.34-0.75-6.04-2.64c-8.37-9.27-16.84-18.44-25.3-27.64c-4.8-5.22-9.64-10.41-14.81-15.99
		c-0.53,1.22-0.88,1.92-1.15,2.65c-3.47,9.54-6.94,19.07-10.39,28.62c-5.38,14.86-10.76,29.71-16.12,44.57
		c-0.61,1.69-1.6,3.5,0.1,5.09c2.58,2.41,1.81,4.82,0.6,7.62c-10.27,23.83-20.44,47.7-30.62,71.57c-2.06,4.83-2.03,4.84,2.51,7.65
		c17.7,10.95,35.37,21.93,53.11,32.81c2.68,1.65,4.57,3.53,5.42,6.7c1.16,4.33,2.91,8.49,4.21,12.78c0.33,1.09,0.8,1.97,1.45,2.73
		c0.47,0.55,1.04,1.03,1.73,1.48"/>
</g>
<path class="st2" d="M476.29,1118.24c-7.67-0.05-15.33-0.09-23-0.15c-3.89-0.03-4.42-0.08-4.26-4.06
	c0.26-6.22-2.56-10.62-6.48-14.96c-5.35-5.92-10.3-12.21-15.63-18.59c-0.52,0.97-1.02,1.63-1.26,2.38
	c-3.48,10.59-6.82,21.23-10.44,31.77c-0.86,2.5-0.31,3.99,1.48,5.64c2.93,2.72,5.64,5.68,8.53,8.44c1.26,1.2,1.17,2.07,0.05,3.32
	c-3.67,4.09-7.35,8.19-10.8,12.47c-1.96,2.43-3.81,5.05-5.14,7.85c-6.27,13.23-12.36,26.55-18.48,39.85
	c-1.51,3.27-1.47,3.3,1.78,5.17c3.61,2.07,7.26,4.08,10.85,6.19c2.59,1.52,2.58,1.59,0.44,3.94c-3.01,3.31-6.05,6.58-9.3,10.11
	c10.99,5.71,21.63,11.19,32.21,16.79c1.95,1.03,2.91,0.8,3.76-1.29c1.81-4.44,3.83-8.79,6.27-14.31c3.5,13.07,6.67,24.96,9.86,36.85
	c0.56,2.09,1.21,3.97,3.2,5.39c9.9,7.06,19.67,14.3,29.5,21.46c0.38,0.28,1.33,0.54,2.17,0.94c0-0.01,0-0.01,0-0.02
	c0.83-0.4,1.6-0.59,1.98-0.87c9.83-7.16,19.6-14.4,29.5-21.46c1.99-1.42,2.64-3.3,3.2-5.39c3.19-11.89,6.36-23.78,9.86-36.85
	c2.44,5.52,4.46,9.87,6.27,14.31c0.85,2.09,1.81,2.32,3.76,1.29c10.58-5.59,21.22-11.07,32.21-16.79c-3.25-3.53-6.29-6.81-9.3-10.11
	c-2.14-2.35-2.15-2.42,0.44-3.94c3.59-2.11,7.24-4.12,10.85-6.19c3.26-1.87,3.29-1.9,1.78-5.17c-6.13-13.3-12.21-26.62-18.48-39.85
	c-1.33-2.8-3.18-5.43-5.14-7.85c-3.45-4.28-7.12-8.37-10.8-12.47c-1.12-1.25-1.21-2.12,0.05-3.32c2.89-2.76,5.6-5.72,8.53-8.44
	c1.78-1.65,2.34-3.14,1.48-5.64c-3.62-10.54-6.97-21.18-10.44-31.77c-0.24-0.75-0.74-1.41-1.27-2.38
	c-5.33,6.38-10.27,12.67-15.63,18.59c-3.92,4.34-6.74,8.74-6.48,14.96c0.16,3.98-0.37,4.03-4.26,4.06c-7.67,0.06-15.33,0.1-23,0.15
	 M484.36,1241.13c3.83-0.11,7.67-0.09,11.5,0.02c0.87,0.02,2.45,0.61,2.45,0.97c0.03,1.4,0.31,2.84,0.34,4.25
	c0,0.24-0.02,0.47-0.08,0.69c-0.35,1.38-0.69,2.95-1.58,3.97c-0.76,0.88-1.54,1.74-2.32,2.61c-3.87,4.17-7.69,8.39-11.47,12.64
	c-0.41,0.46-0.77,0.77-1.12,0.95c-0.78,0.34-1.45-0.03-2.32-1.01c-4.54-5.1-9.11-10.18-13.79-15.15c-0.01-0.01-0.01-0.01-0.02-0.02
	c-0.87-1.02-1.21-2.57-1.55-3.94c-0.06-0.23-0.08-0.47-0.08-0.72c0-0.03,0-0.06,0-0.09c0-0.09,0-0.19,0.01-0.28
	c0-0.09,0.01-0.18,0.02-0.27c0-0.06,0.01-0.12,0.01-0.18c0.09-1.17,0.28-2.34,0.3-3.5c0.01-0.36,1.59-0.95,2.45-0.97
	c3.83-0.11,7.67-0.13,11.5-0.02 M448.12,1192.17c-3.8-1.2-7.47-2.82-11.29-3.98c-2.73-0.83-4.53-2.29-5.82-4.88
	c-2.67-5.35-5.65-10.56-8.47-15.83c-0.43-0.8-0.7-1.68-1.46-3.53c4.13,2.56,7.25,4.67,10.55,6.46c1.68,0.91,3.64,1.44,5.54,1.81
	c2.28,0.45,4.66,0.95,6.93,0.71c5.08-0.52,8.64,1.59,11.25,5.65c0.95,1.48,1.83,3.12,2.21,4.81c1.06,4.7,1.88,9.46,2.73,14.21
	c0.48,2.72,0.84,5.46,1.25,8.19c-2.82-2.66-5.05-5.53-6.91-8.63C453.07,1194.55,450.96,1193.06,448.12,1192.17z M540.44,1167.53
	c-2.82,5.28-5.8,10.48-8.47,15.83c-1.29,2.59-3.09,4.05-5.82,4.88c-3.81,1.15-7.48,2.78-11.29,3.98c-2.84,0.89-4.95,2.39-6.51,4.99
	c-1.86,3.1-4.09,5.97-6.91,8.63c0.41-2.73,0.77-5.47,1.25-8.19c0.85-4.75,1.66-9.5,2.73-14.21c0.38-1.69,1.26-3.33,2.21-4.81
	c2.6-4.06,6.17-6.17,11.25-5.65c2.27,0.23,4.65-0.27,6.93-0.71c1.9-0.37,3.86-0.89,5.54-1.81c3.29-1.79,6.41-3.9,10.55-6.46
	C541.15,1165.85,540.87,1166.73,540.44,1167.53z"/>
<g>
	<g>
		<path class="st4" d="M-1550.31,177.44c-4.54-9.82-9.11-19.62-13.67-29.42c-6.1-13.13-12.19-26.26-18.31-39.39
			c-0.75-1.61-1.72-3.23,0-4.75c2.58-2.26,1.81-4.6,0.75-7.26c-8.75-22.11-17.37-44.27-26.05-66.41c-0.5-1.27-1.18-2.47-2.12-4.42
			c-1.15,1.35-1.82,2.24-2.61,3.04c-12.57,12.63-25.18,25.21-37.69,37.89c-2.1,2.13-4.22,3.15-7.48,3.07
			c-9.19-0.23-18.4-0.17-27.6-0.03c-2.64,0.04-4.45-0.71-6.2-2.49c-8.58-8.75-17.27-17.4-25.94-26.07
			c-4.93-4.93-9.89-9.82-15.18-15.08c-0.54,1.15-0.9,1.81-1.18,2.5c-3.56,8.99-7.11,17.99-10.65,26.99
			c-5.51,14.01-11.03,28.02-16.52,42.04c-0.63,1.6-1.65,3.3,0.11,4.8c2.65,2.27,1.85,4.55,0.62,7.19
			c-10.53,22.47-20.96,44.99-31.39,67.5c-2.11,4.55-2.08,4.57,2.57,7.21c18.14,10.33,36.26,20.69,54.44,30.95
			c2.75,1.55,4.69,3.33,5.56,6.32c1.19,4.08,2.99,8.01,4.32,12.06c0.58,1.78,1.58,2.95,3.27,3.97
			c15.58,9.35,31.15,18.73,46.61,28.25c2.6,1.6,4.4,1.91,7.19,0.18c15.58-9.64,31.34-19.02,46.97-28.6
			c1.29-0.79,2.38-2.21,2.95-3.55c1.66-3.94,3.21-7.95,4.41-12.03c0.92-3.13,2.92-5.05,5.84-6.7
			c18.19-10.25,36.31-20.62,54.44-30.95C-1548.38,181.72-1548.34,181.7-1550.31,177.44z M-1581.2,163.7
			c-3.7,1.96-7.44,3.85-11.12,5.84c-2.66,1.43-2.65,1.5-0.45,3.71c3.09,3.12,6.2,6.21,9.53,9.54
			c-11.26,5.39-22.17,10.56-33.01,15.83c-2,0.97-2.98,0.75-3.85-1.22c-1.86-4.18-3.93-8.29-6.43-13.49
			c-3.58,12.33-6.84,23.54-10.1,34.75c-0.57,1.97-1.24,3.74-3.28,5.08c-10.14,6.66-20.16,13.49-30.24,20.24
			c-0.39,0.26-1.18,0.45-2.03,0.82c0,0.01,0,0.01-0.01,0.02c-0.86-0.38-1.83-0.62-2.22-0.89c-10.07-6.76-20.09-13.58-30.24-20.24
			c-2.04-1.34-2.71-3.12-3.28-5.08c-3.27-11.21-6.52-22.42-10.1-34.75c-2.5,5.21-4.57,9.31-6.43,13.49
			c-0.87,1.97-1.86,2.19-3.85,1.22c-10.84-5.28-21.75-10.45-33.01-15.83c3.33-3.33,6.45-6.42,9.53-9.54
			c2.19-2.22,2.21-2.28-0.45-3.71c-3.68-1.99-7.42-3.88-11.12-5.84c-3.34-1.76-3.37-1.79-1.83-4.88
			c6.28-12.54,12.52-25.1,18.95-37.58c1.36-2.64,3.26-5.12,5.27-7.41c3.54-4.03,7.3-7.9,11.07-11.76c1.15-1.18,1.24-2-0.05-3.13
			c-2.97-2.6-5.74-5.4-8.75-7.96c-1.83-1.56-2.4-2.96-1.52-5.32c3.71-9.94,7.14-19.97,10.7-29.96c0.25-0.7,0.76-1.33,1.3-2.24
			c5.46,6.02,10.53,11.95,16.02,17.53c4.02,4.09,6.91,8.24,6.64,14.11c-0.17,3.76,0.38,3.8,4.37,3.83
			c7.86,0.06,15.72,0.1,23.57,0.14l10.68,0.05c7.86-0.05,15.72-0.08,23.57-0.14c3.99-0.03,4.54-0.07,4.37-3.83
			c-0.26-5.86,2.62-10.02,6.64-14.11c5.49-5.58,10.56-11.51,16.02-17.53c0.54,0.91,1.05,1.54,1.3,2.24
			c3.56,9.99,6.99,20.02,10.7,29.96c0.88,2.36,0.31,3.76-1.52,5.32c-3.01,2.56-5.78,5.35-8.75,7.96c-1.29,1.13-1.2,1.95-0.05,3.13
			c3.76,3.86,7.53,7.72,11.07,11.76c2.01,2.29,3.91,4.76,5.27,7.41c6.43,12.48,12.67,25.04,18.95,37.58
			C-1577.83,161.91-1577.86,161.94-1581.2,163.7z"/>
		<path class="st4" d="M-1696.82,150.48c-0.39-1.59-1.3-3.14-2.27-4.54c-2.67-3.83-6.32-5.82-11.53-5.33
			c-2.32,0.22-4.77-0.25-7.11-0.67c-1.95-0.35-3.95-0.84-5.68-1.71c-3.38-1.69-6.57-3.68-10.81-6.09c0.77,1.74,1.06,2.57,1.49,3.33
			c2.89,4.98,5.95,9.88,8.68,14.93c1.32,2.44,3.17,3.82,5.97,4.6c3.91,1.09,7.67,2.62,11.57,3.75c2.91,0.84,5.07,2.25,6.67,4.71
			c1.9,2.92,4.2,5.63,7.08,8.14c-0.42-2.57-0.79-5.16-1.28-7.72C-1694.89,159.4-1695.73,154.91-1696.82,150.48z"/>
		<path class="st4" d="M-1657.56,204.96c-3.93-0.1-7.86-0.13-11.79-0.02l-5.89-0.05c-3.93-0.1-7.86-0.08-11.79,0.02
			c-0.89,0.02-2.51,0.58-2.52,0.92c-0.03,1.09-0.22,2.2-0.31,3.3c0,0.06-0.01,0.12-0.01,0.17c-0.01,0.09-0.01,0.17-0.02,0.26
			c-0.01,0.09-0.01,0.18-0.01,0.26c0,0.03,0,0.06,0,0.09c0,0.23,0.02,0.46,0.08,0.68c0.36,1.29,0.7,2.76,1.59,3.72
			c0.01,0.01,0.01,0.01,0.02,0.02c4.8,4.69,9.48,9.48,14.14,14.29c0.89,0.92,1.58,1.27,2.38,0.95c0.36-0.18,0.73-0.47,1.15-0.9
			c3.88-4.01,7.79-7.98,11.76-11.92c0.79-0.82,1.59-1.63,2.37-2.46c0.91-0.96,1.25-2.44,1.61-3.74c0.06-0.21,0.08-0.43,0.08-0.65
			c-0.03-1.33-0.31-2.68-0.35-4.01C-1655.05,205.54-1656.67,204.98-1657.56,204.96z"/>
		<path class="st4" d="M-1626.85,139.98c-2.33,0.42-4.78,0.89-7.11,0.67c-5.21-0.49-8.86,1.5-11.53,5.33
			c-0.97,1.39-1.88,2.95-2.27,4.54c-1.09,4.43-1.93,8.92-2.79,13.4c-0.5,2.56-0.86,5.15-1.28,7.72c2.89-2.51,5.18-5.22,7.08-8.14
			c1.6-2.46,3.76-3.86,6.67-4.71c3.9-1.13,7.66-2.66,11.57-3.75c2.8-0.78,4.65-2.16,5.97-4.6c2.74-5.05,5.79-9.96,8.68-14.93
			c0.44-0.75,0.72-1.59,1.49-3.33c-4.24,2.42-7.44,4.4-10.81,6.09C-1622.9,139.14-1624.9,139.63-1626.85,139.98z"/>
	</g>
	<g>
		<path class="st4" d="M-2006.51,324.85v97.54h-26.76v-67.94l-43.33,54.71l-43.33-54.71v67.94h-26.76v-97.54l-12.08-18.61h29.84
			l52.33,65.7l52.33-65.7h29.84L-2006.51,324.85z"/>
		<path class="st4" d="M-1952.79,399.07h76.96v23.32h-101.11V306.24h96.61v23.1h-72.46v28.25c5.37-2.99,11.33-4.86,17.88-5.61
			c6.55-0.75,13.38-1.12,20.48-1.12h18v23.1h-18c-5.68,0-10.38,0.11-14.09,0.34c-3.71,0.22-6.91,0.56-9.59,1.01
			c-2.69,0.45-5.13,1.12-7.34,2.02c-2.21,0.9-4.66,2.02-7.34,3.36V399.07z"/>
		<path class="st4" d="M-1714.37,324.85v97.54h-26.76v-67.94l-43.33,54.71l-43.33-54.71v67.94h-26.76v-97.54l14.23-18.61h3.53
			l52.33,65.7l52.33-65.7h29.84L-1714.37,324.85z"/>
		<path class="st4" d="M-1565.93,386.07c0,11.66-3.83,20.63-11.48,26.91c-7.66,6.28-18.35,9.42-32.08,9.42h-75.3V306.24h75.3
			c5.05,0,9.83,0.78,14.32,2.35s8.44,3.81,11.84,6.73c3.39,2.92,6.08,6.36,8.05,10.32c1.97,3.96,2.95,8.41,2.95,13.34
			c0,3.89-0.59,7.55-1.77,10.99c-1.18,3.44-3.28,6.43-6.28,8.97c4.57,2.54,8.13,6.28,10.66,11.21
			C-1567.19,375.08-1565.93,380.39-1565.93,386.07z M-1660.41,355.8c5.36-2.99,11.32-4.86,17.88-5.61
			c6.55-0.75,13.38-1.12,20.48-1.12h12.55c8.2,0,12.31-3.36,12.31-10.09c0-3.14-1.15-5.53-3.44-7.17c-2.29-1.64-5.25-2.47-8.88-2.47
			h-50.91V355.8z M-1660.41,399.07h50.91c2.52,0,4.93-0.19,7.22-0.56c2.29-0.37,4.3-1.04,6.04-2.02c1.73-0.97,3.15-2.32,4.27-4.04
			c1.1-1.72,1.66-4,1.66-6.84c0-4.33-1.5-7.59-4.5-9.75c-3-2.17-7.89-3.25-14.68-3.25h-12.55c-5.68,0-10.38,0.11-14.09,0.34
			c-3.71,0.22-6.91,0.56-9.59,1.01c-2.68,0.45-5.13,1.12-7.34,2.02c-2.22,0.9-4.66,2.02-7.34,3.36V399.07z"/>
		<path class="st4" d="M-1520.73,399.07h76.95v23.32h-101.11V306.24h96.61v23.1h-72.46v28.25c5.36-2.99,11.32-4.86,17.88-5.61
			c6.55-0.75,13.38-1.12,20.48-1.12h17.99v23.1h-17.99c-5.68,0-10.38,0.11-14.09,0.34c-3.71,0.22-6.91,0.56-9.59,1.01
			c-2.69,0.45-5.13,1.12-7.34,2.02c-2.21,0.9-4.66,2.02-7.34,3.36V399.07z"/>
		<path class="st4" d="M-1323.54,387.39c1.42,2.4,3,4.27,4.73,5.62s3.55,2.36,5.45,3.04c1.89,0.68,3.75,1.12,5.57,1.35
			c1.81,0.22,3.43,0.34,4.85,0.34h8.52v24.67h-10.65c-3.16,0-6.28-0.15-9.36-0.45c-3.08-0.3-6.12-1.04-9.11-2.24
			c-3-1.2-5.92-3.03-8.76-5.49c-2.84-2.47-5.68-5.87-8.52-10.2l-18.95-29.15h-1.66c-4.73,0-8.72,0.11-11.96,0.34
			c-3.24,0.22-6.08,0.64-8.52,1.23c-2.45,0.6-4.74,1.31-6.87,2.13c-2.13,0.82-4.46,1.83-6.99,3.03v40.81h-24.86V306.24h79.09
			c5.68,0,10.85,0.86,15.51,2.59c4.65,1.72,8.72,4.16,12.19,7.31c3.47,3.15,6.16,6.86,8.05,11.13c1.89,4.27,2.84,8.96,2.84,14.05
			c0,8.99-2.45,16.26-7.34,21.8c-4.89,5.55-11.84,9.59-20.84,12.14L-1323.54,387.39z M-1341.53,351.76c3.63,0,6.82-0.93,9.59-2.8
			c2.76-1.87,4.15-4.67,4.15-8.41c0-2.54-0.56-4.56-1.66-6.06c-1.11-1.49-2.49-2.61-4.15-3.36c-1.66-0.75-3.59-1.23-5.8-1.46
			c-2.21-0.23-4.34-0.34-6.39-0.34h-49.96v29.15c4.73-2.54,9.98-4.3,15.75-5.27c5.76-0.97,11.96-1.46,18.59-1.46H-1341.53z"/>
		<path class="st4" d="M-1187.04,334.94c-4.72-3.73-10.18-6.35-16.39-7.85c-6.21-1.49-12.86-2.24-19.93-2.24
			c-2.99,0-5.94,0.34-8.85,1.01c-2.91,0.67-5.54,1.57-7.9,2.69c-2.36,1.12-4.28,2.47-5.78,4.04c-1.49,1.57-2.24,3.18-2.24,4.82
			c0,1.79,0.28,3.4,0.83,4.82c0.55,1.42,1.73,2.62,3.55,3.59c1.81,0.97,4.48,1.76,8.03,2.35c3.54,0.6,8.3,0.9,14.29,0.9
			c12.91,0,23.34,0.97,31.29,2.92c7.95,1.95,14.05,4.56,18.3,7.85c4.25,3.29,7.08,7.1,8.5,11.44c1.42,4.34,2.13,8.82,2.13,13.45
			c0,7.03-1.58,13.12-4.73,18.28c-3.16,5.16-7.54,9.42-13.14,12.78c-5.6,3.36-12.19,5.91-19.77,7.62
			c-7.58,1.72-15.71,2.58-24.39,2.58c-10.89,0-21.19-2.21-30.9-6.62c-9.71-4.41-17.96-10.43-24.74-18.05l17.52-16.82
			c1.89,1.79,3.91,3.81,6.04,6.05c2.13,2.24,4.65,4.34,7.58,6.28c2.92,1.95,6.35,3.55,10.3,4.82c3.94,1.27,8.68,1.91,14.21,1.91
			c11.37,0,20.52-1.57,27.47-4.71c6.95-3.14,10.42-7.85,10.42-14.13c0-5.23-3.12-8.67-9.35-10.32c-6.24-1.64-15.75-2.47-28.53-2.47
			c-7.42,0-14.21-0.59-20.37-1.79c-6.16-1.2-11.48-3.18-15.98-5.94c-4.5-2.76-8.02-6.35-10.54-10.76
			c-2.53-4.41-3.79-9.75-3.79-16.03c0-5.23,1.38-10.01,4.14-14.35c2.76-4.33,6.43-8.03,11.01-11.1c4.58-3.06,9.94-5.42,16.1-7.06
			c6.16-1.64,12.63-2.47,19.42-2.47c9,0,17.76,0.97,26.28,2.92c8.52,1.95,17.29,5.83,26.28,11.66L-1187.04,334.94z"/>
	</g>
	<path class="st4" d="M-1663.14,117.74c0.27,0.45,0.57,0.81,0.89,1.06c0.33,0.25,0.67,0.45,1.03,0.57c0.36,0.13,0.71,0.21,1.05,0.25
		c0.34,0.04,0.65,0.06,0.92,0.06h1.61v4.65h-2.01c-0.6,0-1.18-0.03-1.77-0.08c-0.58-0.06-1.15-0.2-1.72-0.42
		c-0.57-0.23-1.12-0.57-1.65-1.04c-0.54-0.47-1.07-1.11-1.61-1.92l-3.57-5.5h-0.31c-0.89,0-1.65,0.02-2.26,0.06
		c-0.61,0.04-1.15,0.12-1.61,0.23c-0.46,0.11-0.89,0.25-1.3,0.4c-0.4,0.16-0.84,0.35-1.32,0.57v7.7h-4.69v-21.91h14.92
		c1.07,0,2.05,0.16,2.93,0.49c0.88,0.33,1.65,0.78,2.3,1.38c0.65,0.59,1.16,1.29,1.52,2.1c0.36,0.81,0.54,1.69,0.54,2.65
		c0,1.7-0.46,3.07-1.38,4.11c-0.92,1.05-2.23,1.81-3.93,2.29L-1663.14,117.74z M-1666.54,111.02c0.68,0,1.29-0.18,1.81-0.53
		c0.52-0.35,0.78-0.88,0.78-1.59c0-0.48-0.1-0.86-0.31-1.14c-0.21-0.28-0.47-0.49-0.78-0.63c-0.31-0.14-0.68-0.23-1.09-0.27
		c-0.42-0.04-0.82-0.06-1.21-0.06h-9.43v5.5c0.89-0.48,1.88-0.81,2.97-0.99c1.09-0.18,2.26-0.28,3.51-0.28H-1666.54z"/>
	<g>
		<path class="st4" d="M-1383.96,483.69c2.2,3.87,5.36,4.23,7.64,4.23l3.16,0l0.01,10.22l-3.95,0c-4.74,0-9.04-0.36-13.26-7.54
			l-7.03-11.97l-0.61,0c-7.11,0.01-9.04,0.75-12.72,2.78l0.02,16.76l-9.22,0.01l-0.05-47.71l29.31-0.03
			c8.34-0.01,14.31,6.06,14.32,14.35c0.01,7.28-3.85,11.79-10.43,13.92L-1383.96,483.69z M-1390.64,469.15
			c2.72,0,5.09-1.57,5.09-4.61c0-4.24-3.51-4.6-6.67-4.6l-18.52,0.02l0.01,11.97c3.51-2.03,7.98-2.77,12.72-2.78L-1390.64,469.15z"
			/>
		<path class="st4" d="M-1350.86,449.31l9.74-0.01l24.62,48.79l-9.92,0.01l-3.61-7.18l-5.44,0.01c-11.23,0.01-22.9,4.63-24.39,6.66
			l-0.26,0.55l-9.48,0.01l21.72-42.85L-1350.86,449.31z M-1334.33,482.26l-8.88-17.67l-10.77,21.84c2.89-1.57,9.03-4.15,18.43-4.16
			L-1334.33,482.26z"/>
		<path class="st4" d="M-1269.16,492.7c-5,4.52-11.75,6.83-18.69,6.83c-13.78,0.01-26.78-9.37-26.79-25.49
			c-0.02-16.21,13.23-25.25,26.83-25.26c6.67-0.01,13.25,2.01,18.26,5.97l-6.05,7.37c-3.42-2.48-7.9-3.77-12.2-3.76
			c-8.78,0.01-17.29,5.08-17.27,15.86c0.01,10.78,8.7,15.74,17.39,15.73c4.74,0,9.74-1.85,13.25-5.17L-1269.16,492.7z"/>
		<path class="st4" d="M-1249.89,498.02l-9.57,0.01l-0.05-47.71l9.57-0.01l0.03,30.58l20.95-30.6l11.58-0.01l-14.99,21.47
			l6.68,11.78c2.72,3.96,5.36,4.23,7.64,4.23l3.16,0l0.01,10.22l-3.95,0c-4.74,0-7.9-0.64-13.26-7.54l-6.33-10.86L-1249.89,498.02z"
			/>
		<path class="st4" d="M-1175.54,462.03c-3.51-3.04-8.25-4.14-13.52-4.13c-4.39,0-9.21,2.4-9.21,5.17c0,2.86,1.06,4.79,9.92,4.78
			c19.4-0.02,22.39,6.89,22.39,14.62c0.01,11.42-9.99,16.96-22.98,16.97c-7.9,0.01-15.63-3.94-20.64-10.11l6.49-6.91
			c2.72,3.04,6.06,7.82,14.14,7.81c8.25-0.01,14.04-2.78,14.03-7.75c0-4.33-4.57-5.24-14.05-5.24c-10.88,0.01-18.79-3.76-18.8-14.17
			c-0.01-8.66,8.68-14.38,18.77-14.39c6.58-0.01,12.81,1.18,19.49,5.97L-1175.54,462.03z"/>
	</g>
</g>
<g>
	<g>
		<path class="st2" d="M649.69,177.44c-4.54-9.82-9.11-19.62-13.67-29.42c-6.1-13.13-12.19-26.26-18.31-39.39
			c-0.75-1.61-1.72-3.23,0-4.75c2.58-2.26,1.81-4.6,0.75-7.26c-8.75-22.11-17.37-44.27-26.05-66.41c-0.5-1.27-1.18-2.47-2.12-4.42
			c-1.15,1.35-1.82,2.24-2.62,3.04c-12.57,12.63-25.18,25.21-37.69,37.89c-2.1,2.13-4.22,3.15-7.48,3.07
			c-9.19-0.23-18.4-0.17-27.6-0.03c-2.64,0.04-4.45-0.71-6.2-2.49c-8.58-8.75-17.27-17.4-25.94-26.07
			c-4.93-4.93-9.89-9.82-15.18-15.08c-0.54,1.15-0.9,1.81-1.18,2.5c-3.56,8.99-7.11,17.99-10.65,26.99
			c-5.51,14.01-11.03,28.02-16.52,42.04c-0.63,1.6-1.65,3.3,0.11,4.8c2.65,2.27,1.85,4.55,0.62,7.19
			c-10.53,22.47-20.96,44.99-31.39,67.5c-2.11,4.55-2.08,4.57,2.57,7.21c18.14,10.33,36.26,20.69,54.44,30.95
			c2.75,1.55,4.69,3.33,5.56,6.32c1.19,4.08,2.99,8.01,4.32,12.06c0.58,1.78,1.58,2.95,3.27,3.97
			c15.58,9.35,31.15,18.73,46.61,28.25c2.6,1.6,4.4,1.91,7.19,0.18c15.58-9.64,31.34-19.02,46.97-28.6
			c1.29-0.79,2.38-2.21,2.95-3.55c1.66-3.94,3.21-7.95,4.41-12.03c0.92-3.13,2.92-5.05,5.84-6.7
			c18.19-10.25,36.31-20.62,54.44-30.95C651.62,181.72,651.66,181.7,649.69,177.44z M618.8,163.69c-3.7,1.96-7.44,3.85-11.12,5.84
			c-2.66,1.43-2.65,1.5-0.45,3.71c3.09,3.12,6.2,6.21,9.53,9.54c-11.26,5.39-22.17,10.56-33.01,15.83c-2,0.97-2.98,0.75-3.85-1.22
			c-1.86-4.18-3.93-8.29-6.43-13.49c-3.58,12.33-6.84,23.54-10.1,34.75c-0.57,1.97-1.24,3.74-3.28,5.08
			c-10.14,6.66-20.16,13.49-30.24,20.24c-0.39,0.26-1.18,0.45-2.03,0.82c0,0.01,0,0.01,0,0.02c-0.86-0.38-1.83-0.62-2.22-0.89
			c-10.07-6.76-20.09-13.58-30.24-20.24c-2.04-1.34-2.71-3.12-3.28-5.08c-3.27-11.21-6.52-22.42-10.1-34.75
			c-2.5,5.21-4.57,9.31-6.43,13.49c-0.87,1.97-1.86,2.19-3.85,1.22c-10.84-5.28-21.75-10.45-33.01-15.83
			c3.33-3.33,6.45-6.42,9.53-9.54c2.19-2.22,2.21-2.28-0.45-3.71c-3.68-1.99-7.42-3.88-11.12-5.84c-3.34-1.76-3.37-1.79-1.83-4.88
			c6.28-12.54,12.52-25.1,18.95-37.58c1.36-2.64,3.26-5.12,5.27-7.41c3.54-4.03,7.3-7.9,11.07-11.76c1.15-1.18,1.24-2-0.05-3.13
			c-2.97-2.6-5.74-5.4-8.75-7.96c-1.83-1.56-2.4-2.96-1.52-5.32c3.71-9.94,7.14-19.97,10.7-29.96c0.25-0.7,0.76-1.33,1.3-2.24
			c5.46,6.02,10.53,11.95,16.02,17.53c4.02,4.09,6.91,8.24,6.64,14.11c-0.17,3.76,0.38,3.8,4.37,3.83
			c7.86,0.06,15.72,0.1,23.57,0.14l10.68,0.05c7.86-0.05,15.72-0.08,23.57-0.14c3.99-0.03,4.54-0.07,4.37-3.83
			c-0.26-5.86,2.62-10.02,6.64-14.11c5.49-5.58,10.56-11.51,16.02-17.53c0.54,0.91,1.05,1.54,1.3,2.24
			c3.56,9.99,6.99,20.02,10.7,29.96c0.88,2.36,0.31,3.76-1.51,5.32c-3.01,2.56-5.78,5.35-8.75,7.96c-1.29,1.13-1.2,1.95-0.05,3.13
			c3.76,3.86,7.53,7.72,11.07,11.76c2.01,2.29,3.91,4.76,5.27,7.41c6.43,12.48,12.67,25.04,18.95,37.58
			C622.17,161.9,622.14,161.93,618.8,163.69z"/>
		<path class="st2" d="M503.18,150.47c-0.39-1.59-1.3-3.14-2.27-4.54c-2.67-3.83-6.32-5.82-11.53-5.33
			c-2.32,0.22-4.77-0.25-7.11-0.67c-1.95-0.35-3.95-0.84-5.68-1.71c-3.38-1.69-6.57-3.68-10.81-6.09c0.77,1.74,1.06,2.57,1.49,3.33
			c2.89,4.98,5.95,9.88,8.68,14.93c1.32,2.44,3.17,3.82,5.97,4.6c3.91,1.09,7.67,2.62,11.57,3.75c2.91,0.84,5.07,2.25,6.67,4.71
			c1.9,2.92,4.2,5.63,7.08,8.14c-0.42-2.57-0.79-5.16-1.28-7.72C505.11,159.39,504.27,154.9,503.18,150.47z"/>
		<path class="st2" d="M542.44,204.95c-3.93-0.1-7.86-0.13-11.79-0.02l-5.89-0.05c-3.93-0.1-7.86-0.08-11.79,0.02
			c-0.89,0.02-2.51,0.58-2.52,0.92c-0.03,1.09-0.22,2.2-0.31,3.3c0,0.06-0.01,0.12-0.01,0.17c-0.01,0.09-0.01,0.17-0.02,0.26
			c-0.01,0.09-0.01,0.18-0.01,0.26c0,0.03,0,0.06,0,0.09c0,0.23,0.02,0.46,0.08,0.68c0.36,1.29,0.7,2.76,1.59,3.72
			c0.01,0.01,0.01,0.01,0.02,0.02c4.8,4.69,9.48,9.48,14.14,14.29c0.89,0.92,1.58,1.27,2.38,0.95c0.36-0.18,0.73-0.47,1.15-0.9
			c3.88-4.01,7.79-7.98,11.76-11.92c0.79-0.82,1.59-1.63,2.37-2.46c0.91-0.96,1.25-2.44,1.61-3.74c0.06-0.21,0.08-0.43,0.08-0.65
			c-0.03-1.33-0.31-2.68-0.35-4.01C544.95,205.53,543.33,204.97,542.44,204.95z"/>
		<path class="st2" d="M573.15,139.98c-2.33,0.42-4.78,0.89-7.11,0.67c-5.21-0.49-8.86,1.5-11.53,5.33
			c-0.97,1.39-1.88,2.95-2.27,4.54c-1.09,4.43-1.93,8.92-2.79,13.4c-0.5,2.56-0.86,5.15-1.28,7.72c2.89-2.51,5.18-5.22,7.08-8.14
			c1.6-2.46,3.76-3.86,6.67-4.71c3.9-1.13,7.66-2.66,11.57-3.75c2.8-0.78,4.65-2.16,5.97-4.6c2.74-5.05,5.79-9.96,8.68-14.93
			c0.44-0.75,0.72-1.59,1.49-3.33c-4.24,2.42-7.44,4.4-10.81,6.09C577.1,139.13,575.1,139.63,573.15,139.98z"/>
	</g>
	<g>
		<path class="st2" d="M193.49,324.84v97.54h-26.76v-67.94l-43.33,54.71l-43.33-54.71v67.94H53.31v-97.54l-12.08-18.61h29.84
			l52.33,65.7l52.33-65.7h29.84L193.49,324.84z"/>
		<path class="st2" d="M247.21,399.07h76.96v23.32H223.06V306.23h96.61v23.1h-72.46v28.25c5.37-2.99,11.33-4.86,17.88-5.61
			c6.55-0.75,13.38-1.12,20.48-1.12h18v23.1h-18c-5.68,0-10.38,0.11-14.09,0.34c-3.71,0.22-6.91,0.56-9.59,1.01
			c-2.69,0.45-5.13,1.12-7.34,2.02c-2.21,0.9-4.66,2.02-7.34,3.36V399.07z"/>
		<path class="st2" d="M485.63,324.84v97.54h-26.76v-67.94l-43.33,54.71l-43.33-54.71v67.94h-26.76v-97.54l14.23-18.61h3.53
			l52.33,65.7l52.33-65.7h29.84L485.63,324.84z"/>
		<path class="st2" d="M634.07,386.06c0,11.66-3.83,20.63-11.48,26.91c-7.66,6.28-18.35,9.42-32.08,9.42h-75.3V306.23h75.3
			c5.05,0,9.83,0.78,14.32,2.35c4.5,1.57,8.44,3.81,11.84,6.73c3.39,2.92,6.08,6.36,8.05,10.32c1.97,3.96,2.95,8.41,2.95,13.34
			c0,3.89-0.59,7.55-1.77,10.99c-1.18,3.44-3.28,6.43-6.28,8.97c4.57,2.54,8.13,6.28,10.66,11.21
			C632.81,375.07,634.07,380.38,634.07,386.06z M539.59,355.79c5.36-2.99,11.32-4.86,17.88-5.61c6.55-0.75,13.38-1.12,20.48-1.12
			h12.55c8.2,0,12.31-3.36,12.31-10.09c0-3.14-1.15-5.53-3.44-7.17c-2.29-1.64-5.25-2.47-8.88-2.47h-50.91V355.79z M539.59,399.07
			h50.91c2.52,0,4.93-0.19,7.22-0.56c2.29-0.37,4.3-1.04,6.04-2.02c1.73-0.97,3.15-2.32,4.27-4.04c1.1-1.72,1.66-4,1.66-6.84
			c0-4.33-1.5-7.59-4.5-9.75c-3-2.17-7.89-3.25-14.68-3.25h-12.55c-5.68,0-10.38,0.11-14.09,0.34c-3.71,0.22-6.91,0.56-9.59,1.01
			c-2.68,0.45-5.13,1.12-7.34,2.02c-2.22,0.9-4.66,2.02-7.34,3.36V399.07z"/>
		<path class="st2" d="M679.27,399.07h76.95v23.32H655.12V306.23h96.61v23.1h-72.46v28.25c5.36-2.99,11.32-4.86,17.88-5.61
			c6.55-0.75,13.38-1.12,20.48-1.12h17.99v23.1h-17.99c-5.68,0-10.38,0.11-14.09,0.34c-3.71,0.22-6.91,0.56-9.59,1.01
			c-2.69,0.45-5.13,1.12-7.34,2.02c-2.21,0.9-4.66,2.02-7.34,3.36V399.07z"/>
		<path class="st2" d="M876.46,387.38c1.42,2.4,3,4.27,4.73,5.62c1.74,1.35,3.55,2.36,5.45,3.04c1.89,0.68,3.75,1.12,5.57,1.35
			c1.81,0.22,3.43,0.34,4.85,0.34h8.52v24.67h-10.65c-3.16,0-6.28-0.15-9.36-0.45c-3.08-0.3-6.12-1.04-9.11-2.24
			c-3-1.2-5.92-3.03-8.76-5.49c-2.84-2.47-5.68-5.87-8.52-10.2l-18.95-29.15h-1.66c-4.73,0-8.72,0.11-11.96,0.34
			c-3.24,0.22-6.08,0.64-8.52,1.23c-2.45,0.6-4.74,1.31-6.87,2.13c-2.13,0.82-4.46,1.83-6.99,3.03v40.81h-24.86V306.23h79.09
			c5.68,0,10.85,0.86,15.51,2.59c4.65,1.72,8.72,4.16,12.19,7.31c3.47,3.15,6.16,6.86,8.05,11.13c1.89,4.27,2.84,8.96,2.84,14.05
			c0,8.99-2.45,16.26-7.34,21.8c-4.89,5.55-11.84,9.59-20.84,12.14L876.46,387.38z M858.47,351.75c3.63,0,6.82-0.93,9.59-2.8
			c2.76-1.87,4.15-4.67,4.15-8.41c0-2.54-0.56-4.56-1.66-6.06c-1.11-1.49-2.49-2.61-4.15-3.36c-1.66-0.75-3.59-1.23-5.8-1.46
			c-2.21-0.23-4.34-0.34-6.39-0.34h-49.96v29.15c4.73-2.54,9.98-4.3,15.75-5.27c5.76-0.97,11.96-1.46,18.59-1.46H858.47z"/>
		<path class="st2" d="M1012.96,334.93c-4.72-3.73-10.18-6.35-16.39-7.85c-6.21-1.49-12.86-2.24-19.93-2.24
			c-2.99,0-5.94,0.34-8.85,1.01c-2.91,0.67-5.54,1.57-7.9,2.69c-2.36,1.12-4.28,2.47-5.78,4.04c-1.49,1.57-2.24,3.18-2.24,4.82
			c0,1.79,0.28,3.4,0.83,4.82c0.55,1.42,1.73,2.62,3.55,3.59c1.81,0.97,4.48,1.76,8.03,2.35c3.54,0.6,8.3,0.9,14.29,0.9
			c12.91,0,23.34,0.97,31.29,2.92c7.95,1.95,14.05,4.56,18.3,7.85c4.25,3.29,7.08,7.1,8.5,11.44c1.42,4.34,2.13,8.82,2.13,13.45
			c0,7.03-1.58,13.12-4.73,18.28c-3.16,5.16-7.54,9.42-13.14,12.78c-5.6,3.36-12.19,5.91-19.77,7.62
			c-7.58,1.72-15.71,2.58-24.39,2.58c-10.89,0-21.19-2.21-30.9-6.62c-9.71-4.41-17.96-10.43-24.74-18.05l17.52-16.82
			c1.89,1.79,3.91,3.81,6.04,6.05c2.13,2.24,4.65,4.34,7.58,6.28c2.92,1.95,6.35,3.55,10.3,4.82c3.94,1.27,8.68,1.91,14.21,1.91
			c11.37,0,20.52-1.57,27.47-4.71c6.95-3.14,10.42-7.85,10.42-14.13c0-5.23-3.12-8.67-9.35-10.32c-6.24-1.64-15.75-2.47-28.53-2.47
			c-7.42,0-14.21-0.59-20.37-1.79c-6.16-1.2-11.48-3.18-15.98-5.94c-4.5-2.76-8.02-6.35-10.54-10.76
			c-2.53-4.41-3.79-9.75-3.79-16.03c0-5.23,1.38-10.01,4.14-14.35c2.76-4.33,6.43-8.03,11.01-11.1c4.58-3.06,9.94-5.42,16.1-7.06
			c6.16-1.64,12.63-2.47,19.42-2.47c9,0,17.76,0.97,26.28,2.92c8.52,1.95,17.29,5.83,26.28,11.66L1012.96,334.93z"/>
	</g>
	<path class="st2" d="M536.86,117.74c0.27,0.45,0.57,0.81,0.89,1.06c0.33,0.25,0.67,0.45,1.03,0.57c0.36,0.13,0.71,0.21,1.05,0.25
		c0.34,0.04,0.65,0.06,0.92,0.06h1.61v4.65h-2.01c-0.6,0-1.18-0.03-1.77-0.08c-0.58-0.06-1.15-0.2-1.72-0.42
		c-0.57-0.23-1.12-0.57-1.65-1.04c-0.54-0.47-1.07-1.11-1.61-1.92l-3.57-5.5h-0.31c-0.89,0-1.65,0.02-2.26,0.06
		c-0.61,0.04-1.15,0.12-1.61,0.23c-0.46,0.11-0.89,0.25-1.3,0.4c-0.4,0.16-0.84,0.35-1.32,0.57v7.7h-4.69v-21.91h14.92
		c1.07,0,2.05,0.16,2.93,0.49c0.88,0.33,1.65,0.78,2.3,1.38c0.65,0.59,1.16,1.29,1.52,2.1c0.36,0.81,0.54,1.69,0.54,2.65
		c0,1.7-0.46,3.07-1.38,4.11c-0.92,1.05-2.23,1.81-3.93,2.29L536.86,117.74z M533.46,111.01c0.68,0,1.29-0.18,1.81-0.53
		c0.52-0.35,0.78-0.88,0.78-1.59c0-0.48-0.1-0.86-0.31-1.14c-0.21-0.28-0.47-0.49-0.78-0.63c-0.31-0.14-0.68-0.23-1.09-0.27
		c-0.42-0.04-0.82-0.06-1.21-0.06h-9.43v5.5c0.89-0.48,1.88-0.81,2.97-0.99c1.09-0.18,2.26-0.28,3.51-0.28H533.46z"/>
	<g>
		<path class="st2" d="M816.04,483.69c2.2,3.87,5.36,4.23,7.64,4.23l3.16,0l0.01,10.22l-3.95,0c-4.74,0-9.04-0.36-13.26-7.54
			l-7.03-11.97l-0.61,0c-7.11,0.01-9.04,0.75-12.72,2.78l0.02,16.76l-9.22,0.01l-0.05-47.71l29.31-0.03
			c8.34-0.01,14.31,6.06,14.32,14.35c0.01,7.28-3.85,11.79-10.43,13.92L816.04,483.69z M809.36,469.14c2.72,0,5.09-1.57,5.09-4.61
			c0-4.24-3.51-4.6-6.67-4.6l-18.52,0.02l0.01,11.97c3.51-2.03,7.98-2.77,12.72-2.78L809.36,469.14z"/>
		<path class="st2" d="M849.14,449.3l9.74-0.01l24.62,48.79l-9.92,0.01l-3.61-7.18l-5.44,0.01c-11.23,0.01-22.9,4.63-24.39,6.66
			l-0.26,0.55l-9.48,0.01l21.72-42.85L849.14,449.3z M865.67,482.26l-8.88-17.67l-10.77,21.84c2.89-1.57,9.03-4.15,18.43-4.16
			L865.67,482.26z"/>
		<path class="st2" d="M930.84,492.69c-5,4.52-11.75,6.83-18.69,6.83c-13.78,0.01-26.78-9.37-26.79-25.49
			c-0.02-16.21,13.23-25.25,26.83-25.26c6.67-0.01,13.25,2.01,18.26,5.97l-6.05,7.37c-3.42-2.48-7.9-3.77-12.2-3.76
			c-8.78,0.01-17.29,5.08-17.27,15.86c0.01,10.78,8.7,15.74,17.39,15.73c4.74,0,9.74-1.85,13.25-5.17L930.84,492.69z"/>
		<path class="st2" d="M950.11,498.01l-9.57,0.01l-0.05-47.71l9.57-0.01l0.03,30.58l20.95-30.6l11.58-0.01l-14.99,21.47l6.68,11.78
			c2.72,3.96,5.36,4.23,7.64,4.23l3.16,0l0.01,10.22l-3.95,0c-4.74,0-7.9-0.64-13.26-7.54l-6.33-10.86L950.11,498.01z"/>
		<path class="st2" d="M1024.46,462.02c-3.51-3.04-8.25-4.14-13.52-4.13c-4.39,0-9.21,2.4-9.21,5.17c0,2.86,1.06,4.79,9.92,4.78
			c19.4-0.02,22.39,6.89,22.39,14.62c0.01,11.42-9.99,16.96-22.98,16.97c-7.9,0.01-15.63-3.95-20.64-10.11l6.49-6.91
			c2.72,3.04,6.06,7.82,14.14,7.81c8.25-0.01,14.04-2.78,14.03-7.75c0-4.33-4.57-5.24-14.05-5.24c-10.88,0.01-18.79-3.76-18.8-14.17
			c-0.01-8.66,8.68-14.38,18.77-14.39c6.58-0.01,12.81,1.18,19.49,5.97L1024.46,462.02z"/>
	</g>
</g>
<g>
	<g>
		<path class="st4" d="M-3156.98,140.11c-4.54-9.82-9.11-19.62-13.67-29.42c-6.1-13.13-12.19-26.26-18.31-39.39
			c-0.75-1.61-1.72-3.23,0-4.75c2.58-2.26,1.81-4.6,0.75-7.26c-8.75-22.11-17.37-44.27-26.05-66.41c-0.5-1.27-1.18-2.47-2.12-4.42
			c-1.15,1.35-1.82,2.24-2.61,3.04c-12.57,12.63-25.18,25.21-37.69,37.89c-2.1,2.13-4.22,3.15-7.48,3.07
			c-9.19-0.23-18.4-0.17-27.6-0.03c-2.64,0.04-4.45-0.71-6.2-2.49c-8.58-8.75-17.27-17.4-25.94-26.07
			c-4.93-4.93-9.89-9.82-15.18-15.08c-0.54,1.15-0.9,1.81-1.18,2.5c-3.56,8.99-7.11,17.99-10.65,26.99
			c-5.51,14.01-11.03,28.02-16.52,42.04c-0.63,1.6-1.65,3.3,0.11,4.8c2.65,2.27,1.85,4.55,0.62,7.19
			c-10.53,22.47-20.96,44.99-31.39,67.5c-2.11,4.55-2.08,4.57,2.57,7.21c18.14,10.33,36.26,20.69,54.44,30.95
			c2.75,1.55,4.69,3.33,5.56,6.32c1.19,4.08,2.99,8.01,4.32,12.06c0.58,1.78,1.58,2.95,3.27,3.97
			c15.58,9.35,31.15,18.73,46.61,28.25c2.6,1.6,4.4,1.91,7.19,0.18c15.58-9.64,31.34-19.02,46.97-28.6
			c1.29-0.79,2.38-2.21,2.95-3.55c1.66-3.94,3.21-7.95,4.41-12.03c0.92-3.13,2.92-5.05,5.84-6.7
			c18.19-10.25,36.31-20.62,54.44-30.95C-3155.04,144.39-3155.01,144.37-3156.98,140.11z M-3187.87,126.37
			c-3.7,1.96-7.44,3.85-11.12,5.84c-2.66,1.43-2.65,1.5-0.45,3.71c3.09,3.12,6.2,6.21,9.53,9.54
			c-11.26,5.39-22.17,10.56-33.01,15.83c-2,0.97-2.98,0.75-3.85-1.22c-1.86-4.18-3.93-8.29-6.43-13.49
			c-3.58,12.33-6.84,23.54-10.1,34.75c-0.57,1.97-1.24,3.74-3.28,5.08c-10.14,6.66-20.16,13.49-30.24,20.24
			c-0.39,0.26-1.18,0.45-2.03,0.82c0,0.01,0,0.01-0.01,0.02c-0.86-0.38-1.83-0.62-2.22-0.89c-10.07-6.76-20.09-13.58-30.24-20.24
			c-2.04-1.34-2.71-3.12-3.28-5.08c-3.27-11.21-6.52-22.42-10.1-34.75c-2.5,5.21-4.57,9.31-6.43,13.49
			c-0.87,1.97-1.86,2.19-3.85,1.22c-10.84-5.28-21.75-10.45-33.01-15.83c3.33-3.33,6.45-6.42,9.53-9.54
			c2.19-2.22,2.21-2.28-0.45-3.71c-3.68-1.99-7.42-3.88-11.12-5.84c-3.34-1.76-3.37-1.79-1.83-4.88
			c6.28-12.54,12.52-25.1,18.95-37.58c1.36-2.64,3.26-5.12,5.27-7.41c3.54-4.03,7.3-7.9,11.07-11.76c1.15-1.18,1.24-2-0.05-3.13
			c-2.97-2.6-5.74-5.4-8.75-7.96c-1.83-1.56-2.4-2.96-1.51-5.32c3.71-9.94,7.14-19.97,10.7-29.96c0.25-0.7,0.76-1.33,1.3-2.24
			c5.46,6.02,10.53,11.95,16.02,17.53c4.02,4.09,6.91,8.24,6.64,14.11c-0.17,3.76,0.38,3.8,4.37,3.83
			c7.86,0.06,15.72,0.1,23.57,0.14l10.68,0.05c7.86-0.05,15.72-0.08,23.57-0.14c3.99-0.03,4.54-0.07,4.37-3.83
			c-0.26-5.86,2.62-10.02,6.64-14.11c5.49-5.58,10.56-11.51,16.02-17.53c0.54,0.91,1.05,1.54,1.3,2.24
			c3.56,9.99,6.99,20.02,10.7,29.96c0.88,2.36,0.31,3.76-1.52,5.32c-3.01,2.56-5.78,5.35-8.75,7.96c-1.29,1.13-1.2,1.95-0.05,3.13
			c3.76,3.86,7.53,7.72,11.07,11.76c2.01,2.29,3.91,4.76,5.27,7.41c6.43,12.48,12.67,25.04,18.95,37.58
			C-3184.49,124.57-3184.53,124.6-3187.87,126.37z"/>
		<path class="st4" d="M-3303.49,113.14c-0.39-1.59-1.3-3.14-2.27-4.54c-2.67-3.83-6.32-5.82-11.53-5.33
			c-2.32,0.22-4.77-0.25-7.11-0.67c-1.95-0.35-3.95-0.84-5.68-1.71c-3.38-1.69-6.57-3.68-10.81-6.09c0.77,1.74,1.06,2.57,1.49,3.33
			c2.89,4.98,5.95,9.88,8.68,14.93c1.32,2.44,3.17,3.82,5.97,4.6c3.91,1.09,7.67,2.62,11.57,3.75c2.91,0.84,5.07,2.25,6.67,4.71
			c1.9,2.92,4.2,5.63,7.08,8.14c-0.42-2.57-0.79-5.16-1.28-7.72C-3301.56,122.06-3302.4,117.58-3303.49,113.14z"/>
		<path class="st4" d="M-3264.22,167.62c-3.93-0.1-7.86-0.13-11.79-0.02l-5.89-0.05c-3.93-0.1-7.86-0.08-11.79,0.02
			c-0.89,0.02-2.51,0.58-2.52,0.92c-0.03,1.09-0.22,2.2-0.31,3.3c0,0.06-0.01,0.12-0.01,0.17c-0.01,0.09-0.01,0.17-0.02,0.26
			c-0.01,0.09-0.01,0.18-0.01,0.26c0,0.03,0,0.06,0,0.09c0,0.23,0.02,0.46,0.08,0.68c0.36,1.29,0.7,2.76,1.59,3.72
			c0.01,0.01,0.01,0.01,0.02,0.02c4.8,4.69,9.48,9.48,14.14,14.29c0.89,0.92,1.58,1.27,2.38,0.95c0.36-0.18,0.73-0.47,1.15-0.9
			c3.88-4.01,7.79-7.98,11.76-11.92c0.79-0.82,1.59-1.63,2.37-2.46c0.91-0.96,1.25-2.44,1.61-3.74c0.06-0.21,0.08-0.43,0.08-0.65
			c-0.03-1.33-0.31-2.68-0.35-4.01C-3261.72,168.2-3263.34,167.65-3264.22,167.62z"/>
		<path class="st4" d="M-3233.52,102.65c-2.33,0.42-4.78,0.89-7.11,0.67c-5.21-0.49-8.86,1.5-11.53,5.33
			c-0.97,1.39-1.88,2.95-2.27,4.54c-1.09,4.43-1.93,8.92-2.79,13.4c-0.5,2.56-0.86,5.15-1.28,7.72c2.89-2.51,5.18-5.22,7.08-8.14
			c1.6-2.46,3.76-3.86,6.67-4.71c3.9-1.13,7.66-2.66,11.57-3.75c2.8-0.78,4.65-2.16,5.97-4.6c2.74-5.05,5.79-9.96,8.68-14.93
			c0.44-0.75,0.72-1.59,1.49-3.33c-4.24,2.42-7.44,4.4-10.81,6.09C-3229.56,101.81-3231.57,102.3-3233.52,102.65z"/>
	</g>
	<g>
		<path class="st4" d="M-3613.18,287.52v97.54h-26.76v-67.94l-43.33,54.71l-43.33-54.71v67.94h-26.76v-97.54l-12.08-18.61h29.84
			l52.33,65.7l52.33-65.7h29.84L-3613.18,287.52z"/>
		<path class="st4" d="M-3559.45,361.74h76.96v23.32h-101.11V268.9h96.61V292h-72.46v28.25c5.37-2.99,11.33-4.86,17.88-5.61
			c6.55-0.75,13.38-1.12,20.48-1.12h18v23.1h-18c-5.68,0-10.38,0.11-14.09,0.34c-3.71,0.22-6.91,0.56-9.59,1.01
			c-2.69,0.45-5.13,1.12-7.34,2.02c-2.21,0.9-4.66,2.02-7.34,3.36V361.74z"/>
		<path class="st4" d="M-3321.04,287.52v97.54h-26.76v-67.94l-43.33,54.71l-43.33-54.71v67.94h-26.76v-97.54l14.23-18.61h3.53
			l52.33,65.7l52.33-65.7h29.84L-3321.04,287.52z"/>
		<path class="st4" d="M-3172.6,348.73c0,11.66-3.83,20.63-11.48,26.91c-7.66,6.28-18.35,9.42-32.08,9.42h-75.3V268.9h75.3
			c5.05,0,9.83,0.78,14.32,2.35s8.44,3.81,11.84,6.73c3.39,2.92,6.08,6.36,8.05,10.32c1.97,3.96,2.95,8.41,2.95,13.34
			c0,3.89-0.59,7.55-1.77,10.99c-1.18,3.44-3.28,6.43-6.28,8.97c4.57,2.54,8.13,6.28,10.66,11.21
			C-3173.86,337.75-3172.6,343.05-3172.6,348.73z M-3267.08,318.46c5.36-2.99,11.32-4.86,17.88-5.61
			c6.55-0.75,13.38-1.12,20.48-1.12h12.55c8.2,0,12.31-3.36,12.31-10.09c0-3.14-1.15-5.53-3.44-7.17c-2.29-1.64-5.25-2.47-8.88-2.47
			h-50.91V318.46z M-3267.08,361.74h50.91c2.52,0,4.93-0.19,7.22-0.56c2.29-0.37,4.3-1.04,6.04-2.02c1.73-0.97,3.15-2.32,4.27-4.04
			c1.1-1.72,1.66-4,1.66-6.84c0-4.33-1.5-7.59-4.5-9.75c-3-2.17-7.89-3.25-14.68-3.25h-12.55c-5.68,0-10.38,0.11-14.09,0.34
			c-3.71,0.22-6.91,0.56-9.59,1.01c-2.68,0.45-5.13,1.12-7.34,2.02c-2.22,0.9-4.66,2.02-7.34,3.36V361.74z"/>
		<path class="st4" d="M-3127.39,361.74h76.95v23.32h-101.11V268.9h96.61V292h-72.46v28.25c5.36-2.99,11.32-4.86,17.88-5.61
			c6.55-0.75,13.38-1.12,20.48-1.12h18v23.1h-18c-5.68,0-10.38,0.11-14.09,0.34c-3.71,0.22-6.91,0.56-9.59,1.01
			c-2.69,0.45-5.13,1.12-7.34,2.02c-2.21,0.9-4.66,2.02-7.34,3.36V361.74z"/>
		<path class="st4" d="M-2930.2,350.06c1.42,2.4,3,4.27,4.73,5.62c1.74,1.35,3.55,2.36,5.45,3.04c1.89,0.68,3.75,1.12,5.57,1.35
			c1.81,0.22,3.43,0.34,4.85,0.34h8.52v24.67h-10.65c-3.16,0-6.28-0.15-9.36-0.45c-3.08-0.3-6.12-1.04-9.11-2.24
			c-3-1.2-5.92-3.03-8.76-5.49c-2.84-2.47-5.68-5.87-8.52-10.2l-18.95-29.15h-1.66c-4.73,0-8.72,0.11-11.96,0.34
			c-3.24,0.22-6.08,0.64-8.52,1.23c-2.45,0.6-4.74,1.31-6.87,2.13c-2.13,0.82-4.46,1.83-6.99,3.03v40.81h-24.86V268.9h79.09
			c5.68,0,10.85,0.86,15.51,2.59c4.65,1.72,8.72,4.16,12.19,7.31c3.47,3.15,6.16,6.86,8.05,11.13c1.9,4.27,2.84,8.96,2.84,14.05
			c0,8.99-2.45,16.26-7.34,21.8c-4.89,5.55-11.84,9.59-20.84,12.14L-2930.2,350.06z M-2948.2,314.42c3.63,0,6.82-0.93,9.59-2.8
			c2.76-1.87,4.15-4.67,4.15-8.41c0-2.54-0.56-4.56-1.66-6.06c-1.11-1.49-2.49-2.61-4.15-3.36c-1.66-0.75-3.59-1.23-5.8-1.46
			c-2.21-0.23-4.34-0.34-6.39-0.34h-49.96v29.15c4.73-2.54,9.98-4.3,15.75-5.27c5.76-0.97,11.96-1.46,18.59-1.46H-2948.2z"/>
		<path class="st4" d="M-2793.71,297.61c-4.72-3.73-10.18-6.35-16.39-7.85c-6.21-1.49-12.86-2.24-19.93-2.24
			c-2.99,0-5.94,0.34-8.85,1.01c-2.91,0.67-5.54,1.57-7.9,2.69c-2.36,1.12-4.28,2.47-5.78,4.04c-1.49,1.57-2.24,3.18-2.24,4.82
			c0,1.79,0.28,3.4,0.83,4.82c0.55,1.42,1.73,2.62,3.55,3.59c1.81,0.97,4.48,1.76,8.03,2.35c3.54,0.6,8.3,0.9,14.29,0.9
			c12.91,0,23.34,0.97,31.29,2.92c7.95,1.95,14.05,4.56,18.3,7.85c4.25,3.29,7.08,7.1,8.5,11.44c1.42,4.34,2.13,8.82,2.13,13.45
			c0,7.03-1.58,13.12-4.73,18.28c-3.16,5.16-7.54,9.42-13.14,12.78c-5.6,3.36-12.19,5.91-19.77,7.62
			c-7.58,1.72-15.71,2.58-24.39,2.58c-10.89,0-21.19-2.21-30.9-6.62c-9.71-4.41-17.96-10.43-24.74-18.05l17.52-16.82
			c1.89,1.79,3.91,3.81,6.04,6.05c2.13,2.24,4.65,4.34,7.58,6.28c2.92,1.95,6.35,3.55,10.3,4.82c3.94,1.27,8.68,1.91,14.21,1.91
			c11.37,0,20.52-1.57,27.47-4.71c6.95-3.14,10.42-7.85,10.42-14.13c0-5.23-3.12-8.67-9.35-10.32c-6.24-1.64-15.75-2.47-28.53-2.47
			c-7.42,0-14.21-0.59-20.37-1.79c-6.16-1.2-11.48-3.18-15.98-5.94c-4.5-2.76-8.02-6.35-10.54-10.76
			c-2.53-4.41-3.79-9.75-3.79-16.03c0-5.23,1.38-10.01,4.14-14.35c2.76-4.33,6.43-8.03,11.01-11.1c4.58-3.06,9.94-5.42,16.1-7.06
			c6.16-1.64,12.63-2.47,19.42-2.47c9,0,17.76,0.97,26.28,2.92c8.52,1.95,17.29,5.83,26.28,11.66L-2793.71,297.61z"/>
	</g>
	<path class="st4" d="M-3269.81,80.41c0.27,0.45,0.57,0.81,0.89,1.06c0.33,0.25,0.67,0.45,1.03,0.57c0.36,0.13,0.71,0.21,1.05,0.25
		c0.34,0.04,0.65,0.06,0.92,0.06h1.61v4.65h-2.01c-0.6,0-1.18-0.03-1.76-0.08c-0.58-0.06-1.15-0.2-1.72-0.42
		c-0.57-0.23-1.12-0.57-1.65-1.04c-0.54-0.47-1.07-1.11-1.61-1.92l-3.57-5.5h-0.31c-0.89,0-1.65,0.02-2.26,0.06
		c-0.61,0.04-1.15,0.12-1.61,0.23c-0.46,0.11-0.89,0.25-1.3,0.4c-0.4,0.16-0.84,0.35-1.32,0.57v7.7h-4.69V65.1h14.92
		c1.07,0,2.05,0.16,2.93,0.49c0.88,0.33,1.65,0.78,2.3,1.38c0.65,0.59,1.16,1.29,1.52,2.1c0.36,0.81,0.54,1.69,0.54,2.65
		c0,1.7-0.46,3.07-1.38,4.11c-0.92,1.05-2.23,1.81-3.93,2.29L-3269.81,80.41z M-3273.2,73.69c0.68,0,1.29-0.18,1.81-0.53
		c0.52-0.35,0.78-0.88,0.78-1.59c0-0.48-0.1-0.86-0.31-1.14c-0.21-0.28-0.47-0.49-0.78-0.63c-0.31-0.14-0.68-0.23-1.09-0.27
		c-0.42-0.04-0.82-0.06-1.21-0.06h-9.43v5.5c0.89-0.48,1.88-0.81,2.97-0.99c1.09-0.18,2.26-0.28,3.51-0.28H-3273.2z"/>
	<g>
		<path class="st4" d="M-2990.63,446.36c2.2,3.87,5.36,4.23,7.64,4.23l3.16,0l0.01,10.22l-3.95,0c-4.74,0-9.04-0.36-13.26-7.54
			l-7.03-11.97l-0.61,0c-7.11,0.01-9.04,0.75-12.72,2.78l0.02,16.76l-9.22,0.01l-0.05-47.71l29.31-0.03
			c8.34-0.01,14.31,6.06,14.32,14.35c0.01,7.28-3.85,11.79-10.43,13.92L-2990.63,446.36z M-2997.31,431.81
			c2.72,0,5.09-1.57,5.09-4.61c0-4.24-3.51-4.6-6.67-4.6l-18.52,0.02l0.01,11.97c3.51-2.03,7.98-2.77,12.72-2.78L-2997.31,431.81z"
			/>
		<path class="st4" d="M-2957.53,411.97l9.74-0.01l24.62,48.79l-9.92,0.01l-3.6-7.18l-5.44,0.01c-11.23,0.01-22.9,4.63-24.39,6.66
			l-0.26,0.55l-9.48,0.01l21.72-42.85L-2957.53,411.97z M-2941,444.93l-8.88-17.67l-10.77,21.84c2.89-1.57,9.03-4.15,18.43-4.16
			L-2941,444.93z"/>
		<path class="st4" d="M-2875.82,455.37c-5,4.52-11.75,6.83-18.69,6.83c-13.78,0.01-26.78-9.37-26.79-25.49
			c-0.02-16.21,13.23-25.25,26.83-25.26c6.67-0.01,13.25,2.01,18.26,5.97l-6.05,7.37c-3.42-2.48-7.9-3.77-12.2-3.76
			c-8.78,0.01-17.29,5.08-17.27,15.86c0.01,10.78,8.7,15.74,17.39,15.73c4.74,0,9.74-1.85,13.25-5.17L-2875.82,455.37z"/>
		<path class="st4" d="M-2856.55,460.69l-9.57,0.01l-0.05-47.71l9.57-0.01l0.03,30.58l20.95-30.6l11.58-0.01l-14.99,21.47
			l6.68,11.78c2.72,3.96,5.36,4.23,7.64,4.23l3.16,0l0.01,10.22l-3.95,0c-4.74,0-7.9-0.64-13.26-7.54l-6.33-10.86L-2856.55,460.69z"
			/>
		<path class="st4" d="M-2782.21,424.7c-3.51-3.04-8.25-4.14-13.52-4.13c-4.39,0-9.21,2.4-9.21,5.17c0,2.86,1.06,4.79,9.92,4.78
			c19.4-0.02,22.39,6.89,22.39,14.62c0.01,11.42-9.99,16.96-22.98,16.97c-7.9,0.01-15.63-3.95-20.64-10.11l6.49-6.91
			c2.72,3.04,6.06,7.82,14.14,7.81c8.25-0.01,14.04-2.78,14.03-7.75c0-4.33-4.57-5.24-14.05-5.24c-10.88,0.01-18.79-3.76-18.8-14.17
			c-0.01-8.66,8.68-14.38,18.77-14.39c6.58-0.01,12.81,1.18,19.49,5.97L-2782.21,424.7z"/>
	</g>
</g>
<g>
	<g>
		<path class="st5" d="M-450.31,177.44c-4.54-9.82-9.11-19.62-13.67-29.42c-6.1-13.13-12.19-26.26-18.31-39.39
			c-0.75-1.61-1.72-3.23,0-4.75c2.58-2.26,1.81-4.6,0.75-7.26c-8.75-22.11-17.37-44.27-26.05-66.41c-0.5-1.27-1.18-2.47-2.12-4.42
			c-1.15,1.35-1.82,2.24-2.62,3.04c-12.57,12.63-25.18,25.21-37.69,37.89c-2.1,2.13-4.22,3.15-7.48,3.07
			c-9.19-0.23-18.4-0.17-27.6-0.03c-2.64,0.04-4.45-0.71-6.2-2.49c-8.58-8.75-17.27-17.4-25.94-26.07
			c-4.93-4.93-9.89-9.82-15.18-15.08c-0.54,1.15-0.9,1.81-1.18,2.5c-3.56,8.99-7.11,17.99-10.65,26.99
			c-5.51,14.01-11.03,28.02-16.52,42.04c-0.63,1.6-1.65,3.3,0.11,4.8c2.65,2.27,1.85,4.55,0.62,7.19
			c-10.53,22.47-20.96,44.99-31.39,67.5c-2.11,4.55-2.08,4.57,2.57,7.21c18.14,10.33,36.26,20.69,54.44,30.95
			c2.75,1.55,4.69,3.33,5.56,6.32c1.19,4.08,2.99,8.01,4.32,12.06c0.58,1.78,1.58,2.95,3.27,3.97
			c15.58,9.35,31.15,18.73,46.61,28.25c2.6,1.6,4.4,1.91,7.19,0.18c15.58-9.64,31.34-19.02,46.97-28.6
			c1.29-0.79,2.38-2.21,2.95-3.55c1.66-3.94,3.21-7.95,4.41-12.03c0.92-3.13,2.92-5.05,5.84-6.7
			c18.19-10.25,36.31-20.62,54.44-30.95C-448.38,181.72-448.34,181.7-450.31,177.44z M-481.2,163.69c-3.7,1.96-7.44,3.85-11.12,5.84
			c-2.66,1.43-2.65,1.5-0.45,3.71c3.09,3.12,6.2,6.21,9.53,9.54c-11.26,5.39-22.17,10.56-33.01,15.83c-2,0.97-2.98,0.75-3.85-1.22
			c-1.86-4.18-3.93-8.29-6.43-13.49c-3.58,12.33-6.84,23.54-10.1,34.75c-0.57,1.97-1.24,3.74-3.28,5.08
			c-10.14,6.66-20.16,13.49-30.24,20.24c-0.39,0.26-1.18,0.45-2.03,0.82c0,0.01,0,0.01,0,0.02c-0.86-0.38-1.83-0.62-2.22-0.89
			c-10.07-6.76-20.09-13.58-30.24-20.24c-2.04-1.34-2.71-3.12-3.28-5.08c-3.27-11.21-6.52-22.42-10.1-34.75
			c-2.5,5.21-4.57,9.31-6.43,13.49c-0.87,1.97-1.86,2.19-3.85,1.22c-10.84-5.28-21.75-10.45-33.01-15.83
			c3.33-3.33,6.45-6.42,9.53-9.54c2.19-2.22,2.21-2.28-0.45-3.71c-3.68-1.99-7.42-3.88-11.12-5.84c-3.34-1.76-3.37-1.79-1.83-4.88
			c6.28-12.54,12.52-25.1,18.95-37.58c1.36-2.64,3.26-5.12,5.27-7.41c3.54-4.03,7.3-7.9,11.07-11.76c1.15-1.18,1.24-2-0.05-3.13
			c-2.97-2.6-5.74-5.4-8.75-7.96c-1.83-1.56-2.4-2.96-1.52-5.32c3.71-9.94,7.14-19.97,10.7-29.96c0.25-0.7,0.76-1.33,1.3-2.24
			c5.46,6.02,10.53,11.95,16.02,17.53c4.02,4.09,6.91,8.24,6.64,14.11c-0.17,3.76,0.38,3.8,4.37,3.83
			c7.86,0.06,15.72,0.1,23.57,0.14l10.68,0.05c7.86-0.05,15.72-0.08,23.57-0.14c3.99-0.03,4.54-0.07,4.37-3.83
			c-0.26-5.86,2.62-10.02,6.64-14.11c5.49-5.58,10.56-11.51,16.02-17.53c0.54,0.91,1.05,1.54,1.3,2.24
			c3.56,9.99,6.99,20.02,10.7,29.96c0.88,2.36,0.31,3.76-1.51,5.32c-3.01,2.56-5.78,5.35-8.75,7.96c-1.29,1.13-1.2,1.95-0.05,3.13
			c3.76,3.86,7.53,7.72,11.07,11.76c2.01,2.29,3.91,4.76,5.27,7.41c6.43,12.48,12.67,25.04,18.95,37.58
			C-477.83,161.9-477.86,161.93-481.2,163.69z"/>
		<path class="st5" d="M-596.82,150.47c-0.39-1.59-1.3-3.14-2.27-4.54c-2.67-3.83-6.32-5.82-11.53-5.33
			c-2.32,0.22-4.77-0.25-7.11-0.67c-1.95-0.35-3.95-0.84-5.68-1.71c-3.38-1.69-6.57-3.68-10.81-6.09c0.77,1.74,1.06,2.57,1.49,3.33
			c2.89,4.98,5.95,9.88,8.68,14.93c1.32,2.44,3.17,3.82,5.97,4.6c3.91,1.09,7.67,2.62,11.57,3.75c2.91,0.84,5.07,2.25,6.67,4.71
			c1.9,2.92,4.2,5.63,7.08,8.14c-0.42-2.57-0.79-5.16-1.28-7.72C-594.89,159.39-595.73,154.9-596.82,150.47z"/>
		<path class="st5" d="M-557.56,204.95c-3.93-0.1-7.86-0.13-11.79-0.02l-5.89-0.05c-3.93-0.1-7.86-0.08-11.79,0.02
			c-0.89,0.02-2.51,0.58-2.52,0.92c-0.03,1.09-0.22,2.2-0.31,3.3c0,0.06-0.01,0.12-0.01,0.17c-0.01,0.09-0.01,0.17-0.02,0.26
			c-0.01,0.09-0.01,0.18-0.01,0.26c0,0.03,0,0.06,0,0.09c0,0.23,0.02,0.46,0.08,0.68c0.36,1.29,0.7,2.76,1.59,3.72
			c0.01,0.01,0.01,0.01,0.02,0.02c4.8,4.69,9.48,9.48,14.14,14.29c0.89,0.92,1.58,1.27,2.38,0.95c0.36-0.18,0.73-0.47,1.15-0.9
			c3.88-4.01,7.79-7.98,11.76-11.92c0.79-0.82,1.59-1.63,2.37-2.46c0.91-0.96,1.25-2.44,1.61-3.74c0.06-0.21,0.08-0.43,0.08-0.65
			c-0.03-1.33-0.31-2.68-0.35-4.01C-555.05,205.53-556.67,204.97-557.56,204.95z"/>
		<path class="st5" d="M-526.85,139.98c-2.33,0.42-4.78,0.89-7.11,0.67c-5.21-0.49-8.86,1.5-11.53,5.33
			c-0.97,1.39-1.88,2.95-2.27,4.54c-1.09,4.43-1.93,8.92-2.79,13.4c-0.5,2.56-0.86,5.15-1.28,7.72c2.89-2.51,5.18-5.22,7.08-8.14
			c1.6-2.46,3.76-3.86,6.67-4.71c3.9-1.13,7.66-2.66,11.57-3.75c2.8-0.78,4.65-2.16,5.97-4.6c2.74-5.05,5.79-9.96,8.68-14.93
			c0.44-0.75,0.72-1.59,1.49-3.33c-4.24,2.42-7.44,4.4-10.81,6.09C-522.9,139.13-524.9,139.63-526.85,139.98z"/>
	</g>
	<g>
		<path class="st5" d="M-906.51,324.84v97.54h-26.76v-67.94l-43.33,54.71l-43.33-54.71v67.94h-26.76v-97.54l-12.08-18.61h29.84
			l52.33,65.7l52.33-65.7h29.84L-906.51,324.84z"/>
		<path class="st5" d="M-852.79,399.07h76.96v23.32h-101.11V306.23h96.61v23.1h-72.46v28.25c5.37-2.99,11.33-4.86,17.88-5.61
			c6.55-0.75,13.38-1.12,20.48-1.12h18v23.1h-18c-5.68,0-10.38,0.11-14.09,0.34c-3.71,0.22-6.91,0.56-9.59,1.01
			c-2.69,0.45-5.13,1.12-7.34,2.02c-2.21,0.9-4.66,2.02-7.34,3.36V399.07z"/>
		<path class="st5" d="M-614.37,324.84v97.54h-26.76v-67.94l-43.33,54.71l-43.33-54.71v67.94h-26.76v-97.54l14.23-18.61h3.53
			l52.33,65.7l52.33-65.7h29.84L-614.37,324.84z"/>
		<path class="st5" d="M-465.93,386.06c0,11.66-3.83,20.63-11.48,26.91c-7.66,6.28-18.35,9.42-32.08,9.42h-75.3V306.23h75.3
			c5.05,0,9.83,0.78,14.32,2.35s8.44,3.81,11.84,6.73c3.39,2.92,6.08,6.36,8.05,10.32c1.97,3.96,2.95,8.41,2.95,13.34
			c0,3.89-0.59,7.55-1.77,10.99c-1.18,3.44-3.28,6.43-6.28,8.97c4.57,2.54,8.13,6.28,10.66,11.21
			C-467.19,375.07-465.93,380.38-465.93,386.06z M-560.41,355.79c5.36-2.99,11.32-4.86,17.88-5.61c6.55-0.75,13.38-1.12,20.48-1.12
			h12.55c8.2,0,12.31-3.36,12.31-10.09c0-3.14-1.15-5.53-3.44-7.17c-2.29-1.64-5.25-2.47-8.88-2.47h-50.91V355.79z M-560.41,399.07
			h50.91c2.52,0,4.93-0.19,7.22-0.56c2.29-0.37,4.3-1.04,6.04-2.02c1.73-0.97,3.15-2.32,4.27-4.04c1.1-1.72,1.66-4,1.66-6.84
			c0-4.33-1.5-7.59-4.5-9.75c-3-2.17-7.89-3.25-14.68-3.25h-12.55c-5.68,0-10.38,0.11-14.09,0.34c-3.71,0.22-6.91,0.56-9.59,1.01
			c-2.68,0.45-5.13,1.12-7.34,2.02c-2.22,0.9-4.66,2.02-7.34,3.36V399.07z"/>
		<path class="st5" d="M-420.73,399.07h76.95v23.32h-101.11V306.23h96.61v23.1h-72.46v28.25c5.36-2.99,11.32-4.86,17.88-5.61
			c6.55-0.75,13.38-1.12,20.48-1.12h18v23.1h-18c-5.68,0-10.38,0.11-14.09,0.34c-3.71,0.22-6.91,0.56-9.59,1.01
			c-2.69,0.45-5.13,1.12-7.34,2.02c-2.21,0.9-4.66,2.02-7.34,3.36V399.07z"/>
		<path class="st5" d="M-223.54,387.38c1.42,2.4,3,4.27,4.73,5.62c1.74,1.35,3.55,2.36,5.45,3.04c1.89,0.68,3.75,1.12,5.57,1.35
			c1.81,0.22,3.43,0.34,4.85,0.34h8.52v24.67h-10.65c-3.16,0-6.28-0.15-9.36-0.45c-3.08-0.3-6.12-1.04-9.11-2.24
			c-3-1.2-5.92-3.03-8.76-5.49c-2.84-2.47-5.68-5.87-8.52-10.2l-18.95-29.15h-1.66c-4.73,0-8.72,0.11-11.96,0.34
			c-3.24,0.22-6.08,0.64-8.52,1.23c-2.45,0.6-4.74,1.31-6.87,2.13c-2.13,0.82-4.46,1.83-6.99,3.03v40.81h-24.86V306.23h79.09
			c5.68,0,10.85,0.86,15.51,2.59c4.65,1.72,8.72,4.16,12.19,7.31c3.47,3.15,6.16,6.86,8.05,11.13c1.89,4.27,2.84,8.96,2.84,14.05
			c0,8.99-2.45,16.26-7.34,21.8c-4.89,5.55-11.84,9.59-20.84,12.14L-223.54,387.38z M-241.53,351.75c3.63,0,6.82-0.93,9.59-2.8
			c2.76-1.87,4.15-4.67,4.15-8.41c0-2.54-0.56-4.56-1.66-6.06c-1.11-1.49-2.49-2.61-4.15-3.36c-1.66-0.75-3.59-1.23-5.8-1.46
			c-2.21-0.23-4.34-0.34-6.39-0.34h-49.96v29.15c4.73-2.54,9.98-4.3,15.75-5.27c5.76-0.97,11.96-1.46,18.59-1.46H-241.53z"/>
		<path class="st5" d="M-87.04,334.93c-4.72-3.73-10.18-6.35-16.39-7.85c-6.21-1.49-12.86-2.24-19.93-2.24
			c-2.99,0-5.94,0.34-8.85,1.01c-2.91,0.67-5.54,1.57-7.9,2.69c-2.36,1.12-4.28,2.47-5.78,4.04c-1.49,1.57-2.24,3.18-2.24,4.82
			c0,1.79,0.28,3.4,0.83,4.82c0.55,1.42,1.73,2.62,3.55,3.59c1.81,0.97,4.48,1.76,8.03,2.35c3.54,0.6,8.3,0.9,14.29,0.9
			c12.91,0,23.34,0.97,31.29,2.92c7.95,1.95,14.05,4.56,18.3,7.85c4.25,3.29,7.08,7.1,8.5,11.44c1.42,4.34,2.13,8.82,2.13,13.45
			c0,7.03-1.58,13.12-4.73,18.28c-3.16,5.16-7.54,9.42-13.14,12.78c-5.6,3.36-12.19,5.91-19.77,7.62
			c-7.58,1.72-15.71,2.58-24.39,2.58c-10.89,0-21.19-2.21-30.9-6.62c-9.71-4.41-17.96-10.43-24.74-18.05l17.52-16.82
			c1.89,1.79,3.91,3.81,6.04,6.05c2.13,2.24,4.65,4.34,7.58,6.28c2.92,1.95,6.35,3.55,10.3,4.82c3.94,1.27,8.68,1.91,14.21,1.91
			c11.37,0,20.52-1.57,27.47-4.71c6.95-3.14,10.42-7.85,10.42-14.13c0-5.23-3.12-8.67-9.35-10.32c-6.24-1.64-15.75-2.47-28.53-2.47
			c-7.42,0-14.21-0.59-20.37-1.79c-6.16-1.2-11.48-3.18-15.98-5.94c-4.5-2.76-8.02-6.35-10.54-10.76
			c-2.53-4.41-3.79-9.75-3.79-16.03c0-5.23,1.38-10.01,4.14-14.35c2.76-4.33,6.43-8.03,11.01-11.1c4.58-3.06,9.94-5.42,16.1-7.06
			c6.16-1.64,12.63-2.47,19.42-2.47c9,0,17.76,0.97,26.28,2.92c8.52,1.95,17.29,5.83,26.28,11.66L-87.04,334.93z"/>
	</g>
	<path class="st5" d="M-563.14,117.74c0.27,0.45,0.57,0.81,0.89,1.06c0.33,0.25,0.67,0.45,1.03,0.57c0.36,0.13,0.71,0.21,1.05,0.25
		c0.34,0.04,0.65,0.06,0.92,0.06h1.61v4.65h-2.01c-0.6,0-1.18-0.03-1.77-0.08c-0.58-0.06-1.15-0.2-1.72-0.42
		c-0.57-0.23-1.12-0.57-1.65-1.04c-0.54-0.47-1.07-1.11-1.61-1.92l-3.57-5.5h-0.31c-0.89,0-1.65,0.02-2.26,0.06
		c-0.61,0.04-1.15,0.12-1.61,0.23c-0.46,0.11-0.89,0.25-1.3,0.4c-0.4,0.16-0.84,0.35-1.32,0.57v7.7h-4.69v-21.91h14.92
		c1.07,0,2.05,0.16,2.93,0.49c0.88,0.33,1.65,0.78,2.3,1.38c0.65,0.59,1.16,1.29,1.52,2.1c0.36,0.81,0.54,1.69,0.54,2.65
		c0,1.7-0.46,3.07-1.38,4.11c-0.92,1.05-2.23,1.81-3.93,2.29L-563.14,117.74z M-566.54,111.01c0.68,0,1.29-0.18,1.81-0.53
		c0.52-0.35,0.78-0.88,0.78-1.59c0-0.48-0.1-0.86-0.31-1.14c-0.21-0.28-0.47-0.49-0.78-0.63c-0.31-0.14-0.68-0.23-1.09-0.27
		c-0.42-0.04-0.82-0.06-1.21-0.06h-9.43v5.5c0.89-0.48,1.88-0.81,2.97-0.99c1.09-0.18,2.26-0.28,3.51-0.28H-566.54z"/>
	<g>
		<path class="st5" d="M-283.96,483.69c2.2,3.87,5.36,4.23,7.64,4.23l3.16,0l0.01,10.22l-3.95,0c-4.74,0-9.04-0.36-13.26-7.54
			l-7.03-11.97l-0.61,0c-7.11,0.01-9.04,0.75-12.72,2.78l0.02,16.76l-9.22,0.01l-0.05-47.71l29.31-0.03
			c8.34-0.01,14.31,6.06,14.32,14.35c0.01,7.28-3.85,11.79-10.43,13.92L-283.96,483.69z M-290.64,469.14c2.72,0,5.09-1.57,5.09-4.61
			c0-4.24-3.51-4.6-6.67-4.6l-18.52,0.02l0.01,11.97c3.51-2.03,7.98-2.77,12.72-2.78L-290.64,469.14z"/>
		<path class="st5" d="M-250.86,449.3l9.74-0.01l24.62,48.79l-9.92,0.01l-3.61-7.18l-5.44,0.01c-11.23,0.01-22.9,4.63-24.39,6.66
			l-0.26,0.55l-9.48,0.01l21.72-42.85L-250.86,449.3z M-234.33,482.26l-8.88-17.67l-10.77,21.84c2.89-1.57,9.03-4.15,18.43-4.16
			L-234.33,482.26z"/>
		<path class="st5" d="M-169.16,492.69c-5,4.52-11.75,6.83-18.69,6.83c-13.78,0.01-26.78-9.37-26.79-25.49
			c-0.02-16.21,13.23-25.25,26.83-25.26c6.67-0.01,13.25,2.01,18.26,5.97l-6.05,7.37c-3.42-2.48-7.9-3.77-12.2-3.76
			c-8.78,0.01-17.29,5.08-17.27,15.86c0.01,10.78,8.7,15.74,17.39,15.73c4.74,0,9.74-1.85,13.25-5.17L-169.16,492.69z"/>
		<path class="st5" d="M-149.89,498.01l-9.57,0.01l-0.05-47.71l9.57-0.01l0.03,30.58l20.95-30.6l11.59-0.01l-14.99,21.47l6.68,11.78
			c2.72,3.96,5.36,4.23,7.64,4.23l3.16,0l0.01,10.22l-3.95,0c-4.74,0-7.9-0.64-13.26-7.54l-6.33-10.86L-149.89,498.01z"/>
		<path class="st5" d="M-75.54,462.02c-3.51-3.04-8.25-4.14-13.52-4.13c-4.39,0-9.21,2.4-9.21,5.17c0,2.86,1.06,4.79,9.92,4.78
			c19.4-0.02,22.39,6.89,22.39,14.62c0.01,11.42-9.99,16.96-22.98,16.97c-7.9,0.01-15.63-3.95-20.64-10.11l6.49-6.91
			c2.72,3.04,6.06,7.82,14.14,7.81c8.25-0.01,14.04-2.78,14.03-7.75c0-4.33-4.57-5.24-14.05-5.24c-10.88,0.01-18.79-3.76-18.8-14.17
			c-0.01-8.66,8.68-14.38,18.77-14.39c6.58-0.01,12.81,1.18,19.49,5.97L-75.54,462.02z"/>
	</g>
</g>
</svg>
